HIERARCHY
ROOT Hips
{
  OFFSET 13.6774 106.653 -34.4427
  CHANNELS 6 Xposition Yposition Zposition Zrotation Xrotation Yrotation
  JOINT ToSpine
  {
    OFFSET -2.69724 7.43032 -0.144315
    CHANNELS 3 Zrotation Xrotation Yrotation
    JOINT Spine
    {
      OFFSET -0.0310711 10.7595 1.96963
      CHANNELS 3 Zrotation Xrotation Yrotation
      JOINT Spine1
      {
        OFFSET 19.9056 3.91189 0.764692
        CHANNELS 3 Zrotation Xrotation Yrotation
        JOINT Neck
        {
          OFFSET 25.9749 7.03908 -0.130764
          CHANNELS 3 Zrotation Xrotation Yrotation
          JOINT Head
          {
            OFFSET 9.52751 0.295786 -0.907742
            CHANNELS 3 Zrotation Xrotation Yrotation
            End Site
            {
              OFFSET 16.4037 0.713936 2.7358
            }
          }
        }
        JOINT LeftShoulder
        {
          OFFSET 17.7449 4.33886 11.7777
          CHANNELS 3 Zrotation Xrotation Yrotation
          JOINT LeftArm
          {
            OFFSET 0.911315 1.27913 9.80584
            CHANNELS 3 Zrotation Xrotation Yrotation
            JOINT LeftForeArm
            {
              OFFSET 28.6126 1.18197 -3.53199
              CHANNELS 3 Zrotation Xrotation Yrotation
              JOINT LeftHand
              {
                OFFSET 27.5088 0.0218783 0.327423
                CHANNELS 3 Zrotation Xrotation Yrotation
                End Site
                {
                  OFFSET 18.6038 -0.000155887 0.382096
                }
              }
            }
          }
        }
        JOINT RightShoulder
        {
          OFFSET 17.1009 2.89543 -12.2328
          CHANNELS 3 Zrotation Xrotation Yrotation
          JOINT RightArm
          {
            OFFSET 1.4228 0.178766 -10.211
            CHANNELS 3 Zrotation Xrotation Yrotation
            JOINT RightForeArm
            {
              OFFSET 28.733 1.87905 2.64907
              CHANNELS 3 Zrotation Xrotation Yrotation
              JOINT RightHand
              {
                OFFSET 27.4588 0.290562 -0.101845
                CHANNELS 3 Zrotation Xrotation Yrotation
                End Site
                {
                  OFFSET 17.8396 -0.255518 -0.000602873
                }
              }
            }
          }
        }
      }
    }
  }
  JOINT LeftUpLeg
  {
    OFFSET -5.61296 -2.22332 -10.2353
    CHANNELS 3 Zrotation Xrotation Yrotation
    JOINT LeftLeg
    {
      OFFSET 2.56703 -44.7417 -7.93097
      CHANNELS 3 Zrotation Xrotation Yrotation
      JOINT LeftFoot
      {
        OFFSET 3.16933 -46.5642 -3.96578
        CHANNELS 3 Zrotation Xrotation Yrotation
        JOINT LeftToeBase
        {
          OFFSET 0.346054 -6.02161 12.8035
          CHANNELS 3 Zrotation Xrotation Yrotation
          End Site
          {
            OFFSET 0.134235 -1.35082 5.13018
          }
        }
      }
    }
  }
  JOINT RightUpLeg
  {
    OFFSET -5.7928 -1.72406 10.6446
    CHANNELS 3 Zrotation Xrotation Yrotation
    JOINT RightLeg
    {
      OFFSET -2.57161 -44.7178 -7.85259
      CHANNELS 3 Zrotation Xrotation Yrotation
      JOINT RightFoot
      {
        OFFSET -3.10148 -46.5936 -4.03391
        CHANNELS 3 Zrotation Xrotation Yrotation
        JOINT RightToeBase
        {
          OFFSET -0.0828122 -6.13587 12.8035
          CHANNELS 3 Zrotation Xrotation Yrotation
          End Site
          {
            OFFSET -0.131328 -1.35082 5.13018
          }
        }
      }
    }
  }
}
MOTION
Frames: 8
Frame Time: 0.03333333333333333
0.0000 93.1000 0.0000 68.0107 -46.7817 -3.8102 -70.9468 0.4164 87.9217 73.9257 82.1480 14.1942 -5.6268 32.0233 2.8551 -133.3150 37.4830 150.5705 171.7715 80.9380 -147.4852 1.1835 4.0845 -11.9352 -113.4833 25.0379 -60.7468 15.5654 -4.9438 -105.0285 0.2321 0.5743 1.3175 -1.6646 7.1162 37.5525 -102.0362 -15.9505 73.1170 21.9813 -6.9948 73.7943 -0.4540 -2.0664 -1.4083 -26.8760 -6.5663 80.3730 -5.4966 52.7867 -5.6949 3.3260 -8.3135 -1.8153 -1.1003 3.7333 -3.1756 -67.7448 17.7264 80.4913 4.8283 28.4198 4.1769 -5.6195 -25.7662 1.1885 3.7338 -2.8744 -27.6790 
0.0000 93.1000 0.0000 69.0167 -47.9221 -5.3882 -70.7400 0.4382 87.9644 55.1106 82.1973 29.5230 -4.1431 32.0326 1.6746 -132.4959 36.3593 149.1267 174.7944 80.0136 -149.8607 1.2876 5.1582 -9.4187 -112.7517 25.0731 -63.6843 15.9377 -5.0793 -105.3871 0.5176 0.7596 1.2869 -1.8474 6.9422 37.0723 -96.1827 -22.2824 65.9500 19.9576 -6.7612 72.6867 -0.3621 -2.3272 -1.4939 -29.8801 -4.9523 81.2353 -6.0114 55.9682 -6.9484 4.4719 -11.3871 -2.1179 -1.9226 3.0091 2.1245 -67.6645 15.4752 74.9299 3.6408 37.3068 11.0875 -4.6879 -20.6761 1.5117 2.3881 -18.1155 -18.5135 
0.0000 93.1000 0.0000 72.1201 -47.3481 -3.2351 -70.5923 -0.0919 88.0440 58.5453 80.2776 22.5232 -3.9767 30.6223 1.6672 -129.4666 33.8179 149.0052 175.9257 78.3273 -150.7965 1.0436 4.8632 -10.0482 -109.0852 28.4990 -71.6658 16.2445 -5.9395 -106.9648 0.2963 0.3170 1.6072 -1.8378 6.7367 38.4601 -92.5970 -29.2124 58.0682 13.9006 -5.3223 69.4918 -0.0221 -1.6745 -1.5296 -34.5632 -3.1520 82.8979 -6.0286 56.7995 -7.1593 6.2240 -14.1168 -2.3628 -1.8013 1.8848 0.2567 -60.9012 11.1773 72.3412 1.0017 52.6609 -0.1952 -5.0789 -17.6662 1.7425 1.6224 -24.5929 -3.7860 
0.0000 93.1000 0.0000 77.7174 -43.5464 2.4630 -70.7725 -1.5926 87.9527 84.3415 77.0962 -3.6502 -6.0619 28.3578 1.5948 -124.8922 29.3934 149.4158 175.6913 75.8786 -148.5722 -1.7690 1.5117 -13.3039 -102.2669 33.9082 -85.3848 15.6623 -5.3074 -106.1090 1.4234 -2.1072 4.2599 -2.4888 5.7900 40.5042 -95.0003 -32.3540 48.0890 4.9136 -3.1875 63.9161 -1.1394 3.2275 0.8110 -38.9124 -1.1581 82.4228 -6.4244 56.0124 -10.1970 5.6155 -13.1184 -0.5555 -2.2988 -0.8224 1.7002 -51.4917 7.1263 72.2764 2.5429 60.7456 -11.0299 -6.5572 -16.6934 -0.0213 3.7909 -23.5520 -0.7099 
0.0000 93.1000 0.0000 83.1399 -40.2161 9.6752 -71.0144 -0.4971 87.7687 99.6044 72.5101 -23.4840 -3.9541 23.0040 3.9365 -119.2410 24.3816 147.6673 -167.5301 71.9083 -157.1813 -0.2224 -4.5354 -16.2930 -92.6295 36.6678 -103.4826 16.2319 -4.1621 -100.0152 -1.1270 -0.7227 2.8012 -2.7138 5.7051 45.9578 -95.8521 -32.6571 37.6508 -12.1254 5.0462 61.5772 -0.6951 -0.0943 -1.9467 -42.6967 -0.7781 79.5376 -6.3672 55.9260 -10.8759 8.2601 -13.5416 -1.9345 -0.5195 -0.7564 1.7752 -40.2842 5.6391 79.5649 2.7097 59.2710 -6.6678 -2.2583 -18.1494 0.5307 2.1818 -19.9393 -10.8287 
0.0000 93.1000 0.0000 87.2443 -39.3480 14.8662 -71.1215 -0.4640 87.6055 110.2898 68.3756 -36.0843 -2.1581 19.4094 5.4261 -118.1143 20.0653 148.9903 -159.6803 68.5482 -160.9819 -0.6157 -11.1698 -19.4619 -90.2511 32.4867 -117.6089 16.7468 -0.7234 -91.1930 -2.7122 -0.8967 3.4283 -3.0071 5.7461 46.9092 -95.5963 -29.8603 33.1665 -17.4653 7.4201 63.6217 -0.4283 -0.1420 -1.7177 -46.9440 2.4020 77.8450 -6.2163 55.9152 -10.8474 7.4522 -12.9886 -1.9169 -1.1541 0.9236 1.4305 -26.8019 3.1451 86.8369 2.8377 53.6217 -4.3978 0.5244 -18.4122 0.7836 2.5467 -20.8227 -20.6366 
0.0000 93.1000 0.0000 93.3206 -43.2321 19.7457 -71.0777 -0.6599 87.5272 117.6061 63.8311 -44.3579 1.1455 17.6594 5.6144 -120.7952 17.1450 152.1942 -156.4038 64.9132 -162.5587 -1.2707 -14.9752 -17.7284 -90.3333 28.9886 -131.4756 14.9085 2.6663 -75.8115 -3.5038 -1.3424 4.5056 -3.2600 6.7972 43.7884 -92.0175 -28.4834 35.1445 -19.1492 7.7411 65.5903 -0.6044 0.3358 -1.4245 -51.4161 8.3233 79.9604 -6.2042 56.1664 -11.4164 5.9344 -13.1988 -1.6872 -1.1974 -0.7834 1.9274 -15.0385 0.4102 87.4894 1.7869 40.1013 -0.4298 3.8006 -16.0914 0.6331 1.7091 -23.3011 -18.5053 
0.0000 93.1000 0.0000 103.6452 -47.3605 29.3920 -71.1032 -0.2004 87.5555 126.4580 58.1333 -51.9106 3.0548 16.7894 5.2617 -121.8539 15.6908 157.4825 -156.4652 61.5905 -161.0704 -0.6122 -17.5615 -15.0514 -92.3798 24.1683 -141.6822 9.7434 5.2338 -57.1788 -3.1029 -0.9248 5.1644 -3.0471 8.6143 40.0197 -88.0682 -25.3251 41.0436 -18.3946 7.1823 66.6618 -0.4753 0.1205 -1.3104 -58.7859 14.7814 84.0803 -5.8356 53.7848 -13.2750 4.3834 -14.1611 -1.9700 -1.0662 -0.3550 0.8591 -5.7516 -1.3343 87.3151 2.4476 21.5109 8.2375 4.6806 -13.1029 0.5344 1.4194 -25.9296 -23.3409 
